<svg width="49" height="49" viewBox="0 0 49 49" fill="none" xmlns="http://www.w3.org/2000/svg">
<g clip-path="url(#clip0_6_24)">
<path d="M34.2796 46.9583C33.4221 46.6112 32.8096 45.8354 32.6667 44.9167C32.5646 44.3858 32.6667 44.0183 33.4833 42.5483C36.5458 37.0358 38.1179 30.8087 38.0362 24.5C38.1179 18.375 36.6275 12.3929 33.6875 7.02333C33.2587 6.12499 32.8708 5.26749 32.5442 4.34874C32.6667 3.57291 33.0546 2.85833 33.6875 2.42958C34.6062 1.93958 35.7292 2.04166 36.5662 2.61333C37.1379 3.34833 37.6279 4.08333 38.0362 4.94083C40.233 9.1485 41.7294 13.686 42.4667 18.375C42.9362 22.0704 42.9975 25.8271 42.6504 29.5429C42.0175 34.3204 40.6087 38.9346 38.4446 43.2425C37.1379 45.8558 36.4029 46.9583 35.6271 46.9583H34.2796ZM25.3779 42.4462C24.2142 42.1196 23.4792 40.9354 23.7242 39.7512C23.7242 39.5062 24.3571 38.3833 24.9287 37.24C27.3379 32.6054 28.3792 27.3787 27.9096 22.1725C27.6237 18.4362 26.5417 14.8021 24.7654 11.515C23.4792 8.94249 23.3975 8.53416 24.1529 7.43166C25.0512 6.43124 26.5417 6.28833 27.6442 7.14583C29.1142 9.30999 30.2779 11.6783 31.1354 14.1692C33.7487 21.9071 33.3404 30.3392 29.9921 37.7708C28.2771 41.6296 27.0725 42.875 25.3779 42.3442V42.4462ZM16.1904 37.8933C15.8269 37.7302 15.5044 37.4878 15.2465 37.1841C14.9887 36.8803 14.8019 36.5227 14.7 36.1375C14.7 35.7292 14.7 35.1983 15.6187 33.565C17.1154 30.8515 17.9004 27.8031 17.9004 24.7042C17.9004 21.6053 17.1154 18.5568 15.6187 15.8433C14.2917 13.2708 14.2917 12.74 15.3737 11.76C15.7617 11.3108 16.3333 11.0862 16.9458 11.1679C18.2525 11.1679 18.9875 11.8008 20.09 14.1079C21.8259 17.2952 22.7251 20.8707 22.7033 24.5C22.785 28.1954 21.8867 31.8704 20.1104 35.1167C19.0079 37.2604 18.4567 37.7708 17.3542 37.9546C16.9662 37.9954 16.5579 37.9546 16.1904 37.7708V37.8933ZM7.595 33.5446C6.92125 33.2179 6.39042 32.6667 6.125 31.9521C5.92083 31.2375 6.125 30.625 6.94167 29.3183C7.9625 27.93 8.4525 26.215 8.35042 24.5C8.49333 22.7646 8.02375 21.0496 7.02333 19.6204C6.68446 19.1057 6.38419 18.5666 6.125 18.0075C5.90042 16.7212 6.75792 15.4962 8.16667 15.2512C9.26917 15.0471 10.045 15.5167 11.0658 17.0683C12.5143 19.2725 13.2861 21.8523 13.2861 24.4898C13.2861 27.1273 12.5143 29.7071 11.0658 31.9112C10.0246 33.4833 8.84042 33.9529 7.61542 33.5446H7.595Z" fill="white"/>
</g>
<defs>
<clipPath id="clip0_6_24">
<rect width="49" height="49" fill="white"/>
</clipPath>
</defs>
</svg>
